PathFileType  4	(X/Y/Z) C:\Users\antoi\Documents\MyRepositories\mobilecap\ResultsAnalysis
DataRate	CameraRate	NumFrames	NumMarkers	Units	OrigDataRate	OrigDataStartFrame	OrigNumFrames
100.0	100.0	6	51	mm	100.0	181	1441
Frame#	Time	r_knee			r_shank_antsup			r_ankle			r_calc			r_5meta			r_toe			L_knee			L_shank_antsup			L_ankle			L_calc			L_5meta			L_toe			r_sh2			r_sh3			r_sh4			L_sh2			L_sh3			r_thigh1			r_thigh2			r_thigh3			r_thigh4			r_thigh5			L_thigh1			L_thigh2			L_thigh3			L_thigh4			r.ASIS			r.PSIS			L.ASIS			L.PSIS			C7			R_Shoulder			L_Shoulder			R_Sternum			L_Sternum			R_humerus			R_elbow_med			R_elbow_lat			R_forearm			R_wrist_radius			R_wrist_ulna			L_humerus			L_elbow_med			L_elbow_lat			L_forearm			L_wrist_radius			L_wrist_ulna			R_HJC			L_HJC			R_HJC_reg			L_HJC_reg			
		X1	Y1	Z1	X2	Y2	Z2	X3	Y3	Z3	X4	Y4	Z4	X5	Y5	Z5	X6	Y6	Z6	X7	Y7	Z7	X8	Y8	Z8	X9	Y9	Z9	X10	Y10	Z10	X11	Y11	Z11	X12	Y12	Z12	X13	Y13	Z13	X14	Y14	Z14	X15	Y15	Z15	X16	Y16	Z16	X17	Y17	Z17	X18	Y18	Z18	X19	Y19	Z19	X20	Y20	Z20	X21	Y21	Z21	X22	Y22	Z22	X23	Y23	Z23	X24	Y24	Z24	X25	Y25	Z25	X26	Y26	Z26	X27	Y27	Z27	X28	Y28	Z28	X29	Y29	Z29	X30	Y30	Z30	X31	Y31	Z31	X32	Y32	Z32	X33	Y33	Z33	X34	Y34	Z34	X35	Y35	Z35	X36	Y36	Z36	X37	Y37	Z37	X38	Y38	Z38	X39	Y39	Z39	X40	Y40	Z40	X41	Y41	Z41	X42	Y42	Z42	X43	Y43	Z43	X44	Y44	Z44	X45	Y45	Z45	X46	Y46	Z46	X47	Y47	Z47	X48	Y48	Z48	X49	Y49	Z49	X50	Y50	Z50	X51	Y51	Z51	

181	1.80000000	-227.16839	551.65366	-420.38696	-188.13194	453.04207	-422.76645	-287.74626	123.25353	-425.23963	-369.78297	73.93473	-468.71845	-177.96836	47.63218	-371.71272	-117.46846	75.48464	-433.03604	-239.01107	554.16017	-822.29835	-240.74877	467.07096	-853.24137	-295.93317	127.56836	-830.87918	-377.03276	74.50316	-781.53149	-185.46403	50.16285	-869.16177	-125.38891	77.17853	-806.22246	-216.56785	346.94281	-391.85134	-249.69766	478.64772	-387.16666	-295.27972	373.83920	-373.62602	-330.02505	477.15310	-840.26762	-331.16156	355.10898	-847.98892	-158.46774	877.20831	-414.49118	-151.26241	768.08524	-417.79436	-204.10619	738.37307	-391.36296	-270.68966	863.70329	-419.04816	-254.70844	749.71037	-413.43593	-156.80088	842.33210	-810.45675	-151.42085	702.23964	-812.19514	-266.55358	838.08203	-819.87942	-265.63690	700.68761	-825.71373	-158.50561	1092.69743	-478.63047	-338.09064	1083.65213	-551.63756	-151.88913	1090.31276	-730.43406	-338.27161	1084.77662	-661.00140	-305.79285	1632.11676	-608.03463	-221.44676	1574.42711	-440.94524	-249.23811	1572.12112	-783.11961	-173.19739	1558.07415	-583.94959	-176.97193	1554.66090	-640.54137	-201.89427	1414.80470	-376.71338	-253.11627	1206.98007	-423.85760	-242.44353	1231.00025	-334.62965	-83.43750	1271.22169	-364.05570	-12.67409	1323.31204	-396.95243	-3.15372	1280.77416	-379.37699	-260.85599	1439.75801	-858.07542	-262.40109	1200.59365	-788.91990	-257.59352	1218.59248	-869.68645	-186.92144	1248.93211	-874.93618	-41.76649	1328.74907	-840.12371	-25.20994	1291.44059	-840.95641	-222.53568	967.55369	-499.97040	-224.09175	971.97486	-706.87812	-204.10782	1001.30215	-514.94635	-204.38311	1003.01157	-681.19248	
182	1.81000000	-227.12260	551.71270	-420.54429	-188.08616	453.06881	-422.85902	-287.74520	123.25286	-425.37000	-369.82750	73.92153	-468.67217	-177.96138	47.65460	-371.68686	-117.49528	75.44730	-433.02910	-238.55486	554.04014	-822.41720	-240.18751	467.03425	-853.38553	-295.91858	127.55644	-830.83385	-377.01531	74.55929	-781.56399	-185.47854	50.14017	-869.16047	-125.38462	77.17337	-806.22605	-216.78083	347.08724	-391.75464	-249.61477	478.36746	-387.43561	-295.13548	373.96167	-373.66879	-329.43464	477.20544	-840.55274	-330.81439	355.19819	-848.08581	-158.56425	877.17150	-414.54787	-151.33605	768.03639	-417.71939	-204.40787	738.30690	-391.65448	-270.74155	863.71406	-419.59939	-254.82689	749.72394	-413.93112	-156.49879	842.27702	-811.05234	-151.19853	702.23379	-812.78196	-266.36739	837.92428	-819.87782	-265.41288	700.58423	-825.71300	-158.22939	1092.63570	-478.82152	-337.82418	1083.55298	-551.86320	-151.47464	1090.21116	-730.60519	-337.85180	1084.63129	-661.31862	-305.30326	1632.02829	-608.18060	-221.11471	1574.15621	-441.12258	-248.83272	1571.79553	-783.26731	-172.72528	1557.74220	-583.99261	-176.52440	1554.38804	-640.68447	-202.59110	1414.22358	-376.94302	-254.21859	1206.76651	-425.06540	-243.88289	1230.46328	-335.70679	-84.61264	1270.37937	-364.49298	-13.69503	1322.48201	-397.03166	-4.36873	1279.87641	-379.46609	-261.64063	1439.22059	-857.79511	-263.31819	1200.55068	-788.95720	-259.23977	1218.08580	-868.87424	-188.48106	1248.09658	-874.27947	-42.87696	1327.45235	-839.72833	-26.49334	1290.14767	-840.81711	-222.22757	967.47866	-500.15769	-223.66103	971.85724	-707.06717	-203.89057	1001.26438	-515.16243	-203.93276	1002.90216	-681.39902	
183	1.82000000	-227.10013	551.82962	-420.62066	-188.06516	453.10482	-422.92583	-287.71360	123.28059	-425.47985	-369.85935	73.91062	-468.64817	-177.95303	47.67504	-371.67279	-117.50753	75.43815	-433.06407	-238.12269	554.03088	-822.65675	-239.78816	466.99793	-853.67574	-295.92097	127.50670	-830.77086	-377.01593	74.53823	-781.52070	-185.48056	50.13434	-869.16976	-125.39662	77.15785	-806.22988	-216.81506	347.16998	-391.78489	-249.65990	478.58750	-387.53732	-295.12005	374.09503	-373.70639	-329.01074	477.26708	-840.69159	-330.55800	355.18558	-848.08803	-158.60510	877.17814	-414.57303	-151.39891	767.98583	-417.68895	-204.62466	738.29322	-391.89455	-270.73636	863.85749	-419.96833	-254.82299	749.87425	-414.24664	-156.23529	842.25961	-811.56888	-151.02689	702.20294	-813.10068	-266.19788	837.79473	-819.94144	-265.15149	700.50011	-825.78048	-158.04940	1092.61182	-478.98833	-337.59675	1083.43513	-552.24876	-151.11444	1090.16013	-730.93592	-337.43255	1084.48636	-661.75368	-304.88663	1631.98385	-608.47318	-220.92668	1573.91556	-441.19550	-248.44276	1571.59265	-783.47040	-172.36089	1557.48874	-584.00816	-176.11724	1554.18075	-640.76795	-203.21480	1413.75886	-377.07817	-255.24422	1206.45497	-425.89618	-245.09489	1230.04632	-336.61530	-85.63044	1269.69748	-364.84214	-14.53552	1321.75880	-396.95482	-5.39093	1279.01710	-379.46193	-262.32668	1438.87303	-857.61873	-264.10811	1200.62735	-789.23880	-260.68998	1217.80296	-868.45877	-189.79262	1247.53537	-873.99975	-43.75793	1326.35247	-839.53259	-27.55073	1289.03985	-841.02573	-221.95985	967.42150	-500.44956	-223.21446	971.77086	-707.36080	-203.72872	1001.17994	-515.41937	-203.47904	1002.77681	-681.76780	
184	1.83000000	-227.11862	551.90670	-420.73108	-188.03146	453.16870	-423.00100	-287.66500	123.32625	-425.51848	-369.83359	73.93198	-468.66460	-177.95821	47.65981	-371.66063	-117.50709	75.42829	-433.06938	-237.74060	554.08975	-822.98061	-239.54090	466.95152	-854.01839	-295.91623	127.44600	-830.72734	-377.04048	74.47565	-781.42376	-185.47881	50.13433	-869.17789	-125.40090	77.14478	-806.24018	-216.73367	347.18300	-391.86639	-249.62188	478.77080	-387.65083	-295.15649	374.17296	-373.83235	-328.74792	477.27844	-840.64397	-330.35429	355.16206	-848.11076	-158.60733	877.24333	-414.64225	-151.40411	768.03056	-417.67576	-204.70789	738.36176	-392.04462	-270.67156	864.01624	-420.20861	-254.77407	749.96557	-414.47224	-156.02810	842.26695	-811.96329	-150.78171	702.15100	-813.37005	-266.02185	837.71383	-820.03410	-264.80969	700.48240	-825.94498	-157.95109	1092.63669	-479.13583	-337.41668	1083.31850	-552.74944	-150.81224	1090.17905	-731.35798	-337.12082	1084.30606	-662.20878	-304.57540	1631.97077	-608.78883	-220.85951	1573.76803	-441.26858	-248.09967	1571.55112	-783.75402	-172.10778	1557.32868	-584.10955	-175.82962	1554.04174	-640.85379	-203.71442	1413.51264	-377.15299	-255.92354	1206.35726	-426.58294	-246.07403	1229.76215	-337.28132	-86.52135	1269.18327	-365.04490	-15.17546	1321.09346	-396.75778	-6.15559	1278.26568	-379.43203	-262.87531	1438.76331	-857.65932	-264.77640	1200.80548	-789.72737	-261.86659	1217.75397	-868.34602	-190.85749	1247.23208	-874.00463	-44.44578	1325.52333	-839.72304	-28.36761	1288.12740	-841.35977	-221.72357	967.39453	-500.79255	-222.78658	971.71606	-707.70549	-203.57351	1001.14214	-515.61965	-203.12328	1002.64453	-682.15345	
185	1.84000000	-227.10027	551.93109	-420.96937	-187.97732	453.24370	-423.07581	-287.64590	123.34282	-425.52678	-369.77074	73.92137	-468.65270	-177.96396	47.64409	-371.65752	-117.50622	75.40113	-433.04504	-237.44673	554.12699	-823.20988	-239.35415	466.94575	-854.33489	-295.89034	127.44380	-830.75858	-377.07737	74.42166	-781.36551	-185.47834	50.13166	-869.17960	-125.39063	77.13455	-806.25244	-216.74654	347.18121	-391.91187	-249.56594	478.85527	-387.73653	-294.73874	374.21347	-374.16999	-328.56375	477.22394	-840.60541	-330.16965	355.19414	-848.21833	-158.56924	877.30394	-414.80095	-151.33959	768.10072	-417.67368	-204.64405	738.48650	-392.13359	-270.59026	864.05762	-420.39986	-254.72736	749.98491	-414.66990	-155.82608	842.28804	-812.25635	-150.49674	702.11359	-813.55952	-265.83001	837.64588	-820.16280	-264.44458	700.51138	-826.18064	-157.93571	1092.65790	-479.27698	-337.32135	1083.19078	-553.19988	-150.54560	1090.24603	-731.71736	-336.92601	1084.13362	-662.61765	-304.35170	1631.96626	-609.01989	-220.84086	1573.70296	-441.45779	-247.76009	1571.67425	-784.11051	-171.91677	1557.22384	-584.31396	-175.65159	1553.89268	-641.02645	-204.07665	1413.41778	-377.27297	-256.23656	1206.53887	-427.40378	-246.92480	1229.64422	-337.71585	-87.28023	1268.79421	-365.06824	-15.68250	1320.45686	-396.58491	-6.76077	1277.61868	-379.30449	-263.17847	1438.93076	-858.02696	-265.33332	1201.06572	-790.41180	-262.73369	1217.96163	-868.70062	-191.64183	1247.17521	-874.24874	-44.91424	1324.92681	-840.06391	-28.97088	1287.46781	-841.78734	-221.55486	967.36050	-501.11677	-222.42254	971.69400	-708.03036	-203.45169	1001.12144	-515.80461	-202.84963	1002.55782	-682.48694	
186	1.85000000	-226.97908	551.93953	-421.25684	-187.94165	453.28818	-423.15579	-287.64619	123.35108	-425.53853	-369.73245	73.84990	-468.59737	-177.95045	47.64377	-371.64740	-117.49259	75.39204	-433.03952	-237.19427	554.07874	-823.26558	-239.16723	466.92387	-854.47879	-295.86221	127.48313	-830.83070	-377.10031	74.38347	-781.38014	-185.47957	50.12408	-869.18147	-125.37630	77.12059	-806.25929	-216.80378	347.19905	-391.96097	-249.65213	479.23268	-387.67881	-293.88098	374.25467	-374.60509	-328.38957	477.17884	-840.72862	-329.96889	355.26114	-848.41177	-158.45600	877.34058	-414.99158	-151.25427	768.09658	-417.75396	-204.49895	738.57547	-392.28607	-270.53239	864.03874	-420.61575	-254.63343	750.04254	-414.87898	-155.56418	842.28114	-812.45779	-150.20343	702.09378	-813.57752	-265.57343	837.60599	-820.36401	-264.12579	700.47404	-826.38366	-158.01710	1092.67076	-479.43832	-337.29181	1083.04995	-553.61554	-150.30710	1090.30808	-731.94373	-336.78885	1084.01066	-662.91503	-304.16475	1631.98698	-609.22104	-220.87710	1573.67944	-441.68579	-247.40380	1571.90002	-784.44374	-171.77992	1557.14151	-584.52655	-175.49675	1553.77782	-641.27872	-204.33892	1413.37711	-377.44762	-256.87979	1206.63277	-427.74055	-247.71754	1229.70484	-337.91789	-87.90041	1268.48074	-364.92717	-16.08627	1319.90497	-396.48123	-7.29176	1277.06806	-378.96974	-263.20428	1439.33159	-858.52786	-265.78790	1201.38876	-791.27255	-263.31404	1218.37098	-869.59178	-192.11519	1247.35245	-874.85197	-45.16312	1324.53424	-840.31743	-29.35778	1287.08149	-842.36246	-221.47414	967.31930	-501.38504	-222.12690	971.68410	-708.29873	-203.37764	1001.07503	-516.03861	-202.61034	1002.54071	-682.76888	
